<svg version="1.1" xmlns="http://www.w3.org/2000/svg" style="display: block;" viewBox="0 0 2041 2048" width="1495" height="1500" preserveAspectRatio="none">
<path transform="translate(0,0)" fill="rgb(255,255,255)" d="M 0 0 L 2041 0 L 2041 2048 L 0 2048 L 0 0 z"/>
<path transform="translate(0,0)" fill="rgb(133,214,152)" d="M 660.581 1005.39 C 724.381 1000.82 779.769 1048.92 784.174 1112.73 C 788.579 1176.55 740.326 1231.81 676.503 1236.04 C 612.919 1240.26 557.913 1192.23 553.524 1128.66 C 549.136 1065.08 597.021 1009.95 660.581 1005.39 z"/>
<path transform="translate(0,0)" fill="rgb(255,255,255)" d="M 688.139 1055.12 C 696.68 1055.35 712.298 1056.95 720.007 1060.35 C 733.299 1066.2 726.5 1076.18 720.964 1084.66 C 722.761 1095.6 733.176 1094.79 722.219 1108.84 C 712.448 1115.71 694.708 1112.08 683.838 1109.51 C 675.846 1107.61 684.941 1060.37 688.139 1055.12 z"/>
<path transform="translate(0,0)" fill="rgb(133,214,152)" d="M 693.316 1087.37 C 701.267 1088.06 710.383 1087.17 714.76 1094.45 C 715.167 1098.41 714.615 1098.96 712.929 1102.77 C 707.175 1104.7 697.837 1102.57 691.779 1101.54 C 692.46 1096.82 692.86 1092.11 693.316 1087.37 z"/>
<path transform="translate(0,0)" fill="rgb(133,214,152)" d="M 696.788 1064.47 C 702.92 1065.33 712.606 1065.92 715.808 1071.54 C 716.355 1074.87 715.335 1075.96 713.714 1078.97 C 707.534 1079.56 701.033 1078.91 694.81 1078.52 L 696.788 1064.47 z"/>
<path transform="translate(0,0)" fill="rgb(255,255,255)" d="M 699.949 1128.39 C 735.065 1123.29 740.227 1172.43 712.75 1179.49 C 703.969 1180.91 697.485 1181.87 688.653 1182.49 C 686.701 1171.55 685.287 1160.01 683.544 1149.11 C 680.32 1128.96 680.837 1130.41 699.949 1128.39 z"/>
<path transform="translate(0,0)" fill="rgb(133,214,152)" d="M 697.811 1137.29 C 711.837 1135.92 720.522 1140.7 720.335 1157.57 C 720.276 1162.87 716.861 1167.22 712.739 1170.49 C 707.98 1171.55 701.9 1172.29 696.987 1173.03 C 695.801 1165.83 690.996 1143.44 693.657 1138.34 L 697.811 1137.29 z"/>
<path transform="translate(0,0)" fill="rgb(255,255,255)" d="M 622.452 1055.68 C 632.029 1060.18 654.023 1086.09 662.148 1095.45 C 663.624 1097.15 662.852 1098.38 662.384 1100.33 C 659.276 1103.34 661.045 1102.49 657.023 1103.24 C 650.345 1100.86 650.274 1092.84 642.768 1094.55 C 636.99 1096.79 631.195 1098.99 625.384 1101.14 C 625.445 1107.52 627.181 1114.33 621.481 1117.83 C 617.317 1117.73 618.969 1118.46 616.111 1116.22 C 613.045 1109.55 613.94 1069.43 615.333 1061.32 C 617.236 1057.93 618.983 1057.48 622.452 1055.68 z"/>
<path transform="translate(0,0)" fill="rgb(133,214,152)" d="M 624.994 1070.51 C 628.017 1072.77 637.335 1082.44 638.66 1086.01 L 637.526 1087.04 L 624.905 1092.16 C 624.802 1085.04 624.947 1077.65 624.994 1070.51 z"/>
<path transform="translate(0,0)" fill="rgb(255,255,255)" d="M 637.527 1126.2 C 646.057 1125.91 656.771 1128.51 662.016 1135.98 C 665.346 1140.72 668.432 1149.51 662.801 1153.55 C 655.379 1149.13 635.286 1109.43 625.514 1159.38 C 623.382 1170.28 634.159 1173.53 644.221 1173.1 C 648.555 1168.8 652.811 1162.95 659.315 1165.82 C 661.911 1174.17 650.985 1183.33 643.721 1183.78 C 607.404 1186.06 602.865 1135.52 637.527 1126.2 z"/>
<path transform="translate(0,0)" fill="rgb(133,214,152)" d="M 416.326 1005.37 C 479.694 1001.08 534.647 1048.73 539.365 1112.07 C 544.083 1175.41 496.798 1230.69 433.493 1235.83 C 369.58 1241.03 313.659 1193.19 308.896 1129.24 C 304.132 1065.29 352.348 1009.7 416.326 1005.37 z"/>
<path transform="translate(0,0)" fill="rgb(255,255,255)" d="M 428.306 1049.76 C 444.492 1050.99 454.872 1053.22 469.779 1059.68 C 481.76 1064.86 483.197 1067.58 487.644 1078.54 C 502.341 1087.17 498.198 1095.17 504.849 1108.05 C 511.522 1121.07 512.72 1132.82 507.59 1146.7 C 502.478 1160.54 497.679 1158.33 488.731 1165.06 C 480.96 1184.8 468.179 1185.25 448.924 1182.45 L 450.361 1194.1 C 442.216 1195.95 437.887 1196.72 429.607 1197.52 C 423.949 1180.27 424.586 1173.63 413.218 1158.79 C 393.704 1159.51 380.745 1159.66 373.596 1138.8 C 349.132 1134.04 351.679 1131.82 342.231 1110.88 C 343.655 1103.8 343.082 1089.55 347.063 1084.54 C 349.586 1081.36 359.319 1069.54 362.128 1067.83 C 370.317 1062.84 400.787 1046.7 409.131 1052.74 C 408.807 1057.33 402.608 1056.7 401.147 1062.45 C 407.224 1071.26 416.074 1059.06 421.553 1075.16 L 420.678 1076.66 C 416.264 1076.66 411.705 1074.05 407.505 1072.16 C 402.445 1074.07 405.656 1079.15 400.134 1081.94 C 391.778 1080.22 404.366 1060.25 387.456 1061.94 C 385.084 1063.05 382.798 1064.15 381.368 1066.36 C 378.847 1073.43 368.006 1069.13 366.323 1072.53 C 361.64 1082 349.839 1088.35 350.033 1099.89 C 350.139 1106.14 351.816 1109.92 352.24 1113.86 C 354.34 1133.39 365.75 1127.78 379.38 1132.19 C 383.592 1137.62 381.311 1143.03 386.686 1148.24 C 397.755 1158.98 433.881 1142.64 442.422 1149.63 L 442.275 1151.45 C 439.343 1154.54 425.698 1155.8 421.104 1156.45 C 425.285 1163.59 433.927 1187.12 438.51 1189.31 L 440.428 1187.73 C 442.769 1182.99 442.203 1178.3 442.217 1172.88 C 454.239 1175.56 471.983 1182.04 480.181 1167.52 C 481.702 1164.82 481.102 1164.27 480.121 1161.81 C 474.461 1157.15 464.888 1157.21 462.296 1151.82 C 463.637 1148.97 462.673 1150.12 465.405 1148.34 C 476.363 1148.01 494.769 1168.19 500.816 1144.27 C 503.565 1133.4 507.05 1120.52 497.671 1112.07 C 489.36 1110.23 489.826 1119.23 483.533 1120.62 L 481.865 1118.82 C 479.667 1108.97 489.818 1104.95 496.888 1101.98 C 493.326 1095.75 489.396 1086.76 481.959 1085.03 C 476.751 1083.82 472.12 1088.04 467.239 1090.72 C 464.229 1090.09 465.454 1090.85 463.585 1088.16 C 464.313 1080.39 476.109 1080.36 478.596 1073.91 C 475.461 1066.52 465.178 1066.53 458.81 1065.56 C 456.182 1065.16 453.412 1059.96 450.958 1059.44 C 444.772 1058.13 436.014 1059.89 430.542 1056.36 C 427.738 1054.56 428.366 1052.76 428.306 1049.76 z"/>
<path transform="translate(0,0)" fill="rgb(255,255,255)" d="M 391.531 1108.2 C 394.745 1108.69 394.527 1108.61 397.184 1110.49 C 400.542 1118.21 393.184 1120.27 392.291 1126.54 C 391.811 1129.92 396.132 1136.6 392.182 1140.94 C 386.894 1139.98 387.279 1137.43 385.944 1132.87 C 385.854 1132.4 384.833 1130.27 384.595 1129.74 C 379.847 1126.48 380.207 1128.34 373.671 1126.76 C 370.587 1123.6 370.923 1125.21 370.929 1122.03 C 377.183 1118.07 382.684 1122.86 388.144 1119.59 C 390.609 1115.67 390.738 1112.74 391.531 1108.2 z"/>
<path transform="translate(0,0)" fill="rgb(255,255,255)" d="M 471.62 1122.32 C 475.459 1124.33 478.557 1128.25 480.092 1129.23 C 483.943 1131.7 488.78 1126.07 495.436 1128.15 C 496.381 1130.77 496.254 1129.48 495.497 1132.1 C 492.225 1134.41 491.109 1135.05 487.436 1136.72 L 486.511 1137.13 C 484.354 1140.4 484.99 1139.19 485.015 1143.72 C 487.075 1146.73 488.872 1148.6 487.91 1152.09 C 485.025 1153.64 486.613 1153.21 482.862 1152.73 C 477.896 1149.45 478.69 1144.13 477.712 1138.83 C 476.939 1134.63 472.443 1133.15 469.757 1128.57 C 469.522 1124.23 469.07 1126.28 471.62 1122.32 z"/>
<path transform="translate(0,0)" fill="rgb(255,255,255)" d="M 419.098 1092.4 C 428.834 1092.59 425.918 1100.54 432.788 1105.5 C 435.477 1107.44 440.536 1106.9 444.618 1109.82 C 445.084 1112.66 445.322 1111.36 443.907 1113.85 C 440.484 1115.4 436.024 1114.25 432.114 1113.73 C 428.361 1117.48 424.627 1121.69 419.07 1119.15 L 418.724 1116.75 C 420.205 1113.28 422.725 1112.05 425.86 1109.81 C 421.236 1103.02 418.792 1100.68 419.098 1092.4 z"/>
<path transform="translate(0,0)" fill="rgb(255,255,255)" d="M 367.827 1082.34 C 368.914 1082.68 370.491 1083.4 371.586 1083.85 C 375.375 1088.56 371.467 1090.77 375.063 1095.8 C 380.589 1098.06 383.372 1092.31 388.109 1096.48 C 388.976 1103.03 381.956 1103.09 376.737 1103.95 C 368.605 1101.28 367.627 1104.85 359.221 1104.28 L 358.522 1102.73 C 360.399 1098.77 363.158 1097.29 366.718 1094.63 C 366.479 1089.49 365.971 1087.15 367.827 1082.34 z"/>
<path transform="translate(0,0)" fill="rgb(255,255,255)" d="M 449.64 1093.48 C 464.558 1099.14 466.681 1116.24 457.195 1128.35 C 448.01 1122.26 458.834 1118.45 455.824 1109.56 C 454.636 1106.06 448.05 1101.66 447.037 1097.04 L 449.64 1093.48 z"/>
<path transform="translate(0,0)" fill="rgb(255,255,255)" d="M 433.827 1126.55 C 437.217 1127.72 437.705 1128.58 437.922 1131.67 C 432.705 1140.83 423.88 1142.54 414.245 1141.32 C 410.997 1138.96 411.322 1139.91 410.028 1136.71 L 411.169 1135.26 C 416.122 1133.76 419.84 1134.44 425.031 1134.78 C 427.667 1132.77 431.344 1128.96 433.827 1126.55 z"/>
<path transform="translate(0,0)" fill="rgb(255,255,255)" d="M 433.962 1063.84 C 442.849 1065.21 457.641 1072.77 446.543 1082.12 C 444.541 1079.71 442.142 1075.06 440.534 1072.2 C 436.238 1071.83 430.537 1072.09 428.645 1067.75 C 430.775 1064.69 430.131 1065.64 433.962 1063.84 z"/>
<path transform="translate(0,0)" fill="rgb(133,214,152)" d="M 410.743 763.463 C 474.206 755.935 531.727 801.351 539.127 864.828 C 546.527 928.306 500.995 985.735 437.503 993.007 C 374.192 1000.26 316.962 954.884 309.583 891.587 C 302.204 828.291 347.462 770.969 410.743 763.463 z"/>
<path transform="translate(0,0)" fill="rgb(255,255,255)" d="M 429.903 849.127 C 434.945 849.101 441.6 849.464 446.264 848.104 C 447.296 843.261 444.652 841.733 446.992 836.55 C 451.342 832.475 457.692 832.606 462.739 835.295 C 466.535 839.655 465.536 842.799 464.76 848.147 C 469.318 849.593 476.027 849.07 481.022 849.013 C 481.044 853.591 480.723 862.189 481.89 866.24 C 489.944 866.487 497.67 861.686 497.437 876.361 C 497.379 880.002 496.587 881.527 493.805 884.054 C 489.665 885.704 489.487 885.299 484.986 884.913 L 483.103 884.767 L 481.87 884.657 C 480.042 891.822 481.291 913.235 480.972 922.321 C 476.224 918.512 476.237 917.561 470.729 917.446 C 465.395 920.728 468.535 927.927 472.873 929.517 C 476.887 927.566 477.158 925.199 481.014 924.013 L 481.037 949.185 C 476.038 949.302 462.274 950.282 458.766 948.267 C 460.345 944.314 460.74 943.348 461.53 939.219 C 459.122 933.955 451.331 935.226 449.246 939.762 C 450.045 944.089 451.92 945.549 454.883 949.064 C 447.751 949.11 414.812 950.582 411.253 947.875 C 412.423 944.559 412.905 942.967 413.719 939.553 C 411.831 934.246 403.348 934.974 401.536 939.903 C 402.402 943.858 404.549 945.781 407.197 948.995 L 381.831 949.125 C 381.793 945.001 382.52 934.655 379.767 932.289 C 375.104 932.574 371.485 933.234 367.813 930.315 C 364.851 925.473 364.696 919.224 368.657 914.889 C 372.811 912.619 375.822 913.436 380.841 913.346 C 382.031 910.497 381.739 900.749 381.78 897.098 C 386.632 897.104 394.207 897.554 398.564 896.165 C 397.254 886.589 397.72 879.535 410.708 881.221 C 418.134 882.185 417.831 889.168 416.725 895.08 L 416.496 896.249 C 419.54 897.446 426.037 897.059 429.608 897.052 C 429.755 890.527 429.072 881.486 430.817 875.607 C 436.877 877.683 436.173 880.313 442.378 881.36 C 446.393 879.142 445.836 873.223 443.807 869.77 C 438.6 867.887 436.425 872.967 430.571 874.665 C 429.275 868.051 429.672 856.179 429.903 849.127 z"/>
<path transform="translate(0,0)" fill="rgb(133,214,152)" d="M 406.138 884.562 C 410.367 885.668 413.709 885.992 413.581 890.791 C 412.573 892.276 409.552 896.348 409.733 897.731 C 410.4 902.827 426.577 901.182 429.775 901.096 C 430.277 920.426 421.705 908.82 417.013 917.217 C 411.03 927.921 421.893 932.159 429.018 934.184 C 430.02 938.617 429.926 940.793 427.208 944.489 C 423.574 946.229 425.398 946.037 421.556 945.21 C 415.436 940.238 418.088 926.101 399.793 934.614 C 396.891 939.08 399.131 941.06 396.108 944.782 C 376.831 948.078 391.679 935.264 383.321 925.226 C 377.745 924.92 378.195 929.571 372.73 929.226 C 369.842 925.07 369.453 920.236 373 916.32 L 374.889 916.356 C 377.56 918.28 379.784 920.457 382.913 920.651 L 384.677 918.898 C 386.721 913.435 385.946 907.222 385.772 901.218 C 392.164 901.251 398.633 901.888 404.49 899.697 L 405.288 897.884 C 403.522 894.608 402.957 893.463 401.639 890.008 C 402.653 886.533 402.746 887.366 406.138 884.562 z"/>
<path transform="translate(0,0)" fill="rgb(133,214,152)" d="M 454.815 899.215 C 454.092 896.262 452.548 895.199 450.38 892.962 L 449.438 892.002 C 448.748 889.04 448.543 890.407 450.1 887.77 C 453.602 885.68 453.394 885.765 457.485 885.613 C 460.896 887.268 459.686 886.013 461.186 889.558 C 460.908 893.673 458.449 895.411 455.488 898.577 C 461.706 902.899 469.177 901.339 477.326 901.05 C 477.23 906.417 478.079 907.772 475.501 911.864 C 472.267 913.964 470.824 913.955 467.076 914.632 C 463.597 917.86 462.198 924.101 464.752 928.522 C 467.785 933.769 473.678 930.508 477.41 936.367 C 477.725 941.348 476.584 945.423 470.879 945.971 C 462.535 943.193 466.22 937.313 460.059 931.878 C 445.438 927.731 447.521 945.164 438.405 946.595 C 435.666 945.348 435.537 945.581 433.952 943.114 C 433.476 936.58 434.822 927.645 431.717 923.189 C 429.648 926.061 429.541 926.181 426.882 928.516 C 423.172 929.317 424.767 929.65 421.845 928.132 C 419.126 923.328 419.431 919.523 424.093 916.471 C 427.936 917.075 429.332 919.813 433.009 922.132 C 434.012 918.142 433.746 905.976 433.762 901.183 C 439.359 901.326 450.865 902.437 454.815 899.215 z"/>
<path transform="translate(0,0)" fill="rgb(133,214,152)" d="M 455.071 852.76 C 454.453 848.203 452.944 847.34 449.813 843.967 C 449.652 840.254 449.164 841.866 451.117 838.902 C 455.546 836.572 459.678 836.946 462.132 841.541 C 461.18 846.908 457.746 846.426 456.219 852.307 C 462.562 853.418 470.662 853.07 477.259 853.03 C 477.126 859.208 476.443 865.507 478.362 871.235 L 480.124 873.037 C 485.976 871.888 483.898 869.395 489.835 868.975 C 494.293 872.751 494.166 876.361 491.271 881.292 C 486.391 882.854 485.422 877.388 479.888 877.252 C 477.389 879.756 477.12 882.185 477.117 885.622 C 477.151 889.437 477.248 893.251 477.409 897.062 C 473.407 897.115 467.327 897.685 463.928 896.396 C 470.063 881.136 458.044 878.856 446.578 883.973 C 448.259 881.45 449.569 877.002 449.967 873.994 C 451.146 865.075 440.129 866.027 434.749 865.994 C 433.306 862.34 433.694 857.168 433.689 853.085 C 440.818 853.147 447.947 853.038 455.071 852.76 z"/>
<path transform="translate(0,0)" fill="rgb(133,214,152)" d="M 433.849 897.107 C 433.725 893.541 433 888.323 434.683 885.474 C 440.586 884.332 439.859 887.334 446.578 883.973 C 443.481 891.109 445.92 889.181 445.397 895.998 C 442.735 897.647 437.257 897.115 433.849 897.107 z"/>
<path transform="translate(0,0)" fill="rgb(255,255,255)" d="M 377.551 807.513 C 381.276 809.254 390.333 813.999 393.728 813.207 C 395.303 808.747 395.716 805.582 399.356 802.848 C 402.532 802.115 404.134 802.28 407.016 803.64 C 417.377 808.532 415.422 813.014 410.419 820.526 L 409.572 821.782 C 412.99 824.907 420.144 827.679 424.615 829.72 C 422.039 835.399 416.761 849.157 412.028 851.817 C 411.244 848.232 411.27 846.159 408.465 843.91 C 402.729 843 401.044 846.046 400.745 851.586 C 402.616 854.79 401.309 853.704 404.792 854.964 C 408.117 854.209 408.482 854.015 411.465 852.7 C 412.816 857.655 405.02 871.211 402.296 876.746 C 397.996 874.567 384.075 869.424 382.109 865.808 C 385.533 863.149 388.624 861.653 388.453 857.184 C 385.946 854.219 382.115 851.955 378.127 852.567 C 375.864 855.774 379.103 857.835 376.123 862.303 C 370.549 863.361 361.06 857.071 355.628 854.098 L 362.357 838.647 C 360.024 837.271 354.957 837.025 354.003 835.862 C 344.738 824.573 358.573 810.298 370.195 823.243 L 377.551 807.513 z"/>
<path transform="translate(0,0)" fill="rgb(133,214,152)" d="M 401.082 817.403 C 399.145 814.663 398.093 813.808 398.202 810.258 C 401.518 805.637 405.376 807.166 409.352 810.243 C 410.566 813.294 410.467 811.731 409.295 815.098 C 406.85 817.632 404.802 817.732 401.354 818.582 C 401.597 821.796 400.92 821.898 402.719 823.376 C 406.801 826.731 414.287 829.483 419.279 831.599 C 417.102 836.084 417.178 837.758 413.427 840.282 C 409.038 840.672 408.442 840.418 404.029 839.508 C 398.423 841.496 396.3 846.801 396.268 852.48 C 399.684 861.236 408.473 855.32 400.513 871.341 C 397.117 869.895 393.655 869.007 391.962 865.902 C 390.991 858.396 394.244 855.054 388.744 851.559 C 385.249 849.339 383.089 848.737 379.136 849.092 C 374.351 851.588 374.3 854.654 369.172 855.905 C 365.563 855.205 363.995 854.049 360.828 852.265 C 363.316 847.121 369.523 836.422 368.452 831.496 C 363.267 831.453 362.112 834.499 357.134 833.272 C 354.094 828.807 355.338 824.7 359.931 821.819 C 363.279 821.723 361.807 821.27 364.513 823.181 C 365.999 827.007 366.206 828.784 369.497 831.239 C 373.823 827.132 376.93 818.484 379.383 812.832 C 384.855 815.06 391.154 819.619 397.003 820.173 C 398.757 820.338 399.228 819.125 401.082 817.403 z"/>
<path transform="translate(0,0)" fill="rgb(133,214,152)" d="M 655.253 763.499 C 718.413 756.003 775.697 801.112 783.222 864.269 C 790.747 927.425 745.665 984.73 682.512 992.285 C 619.317 999.844 561.966 954.726 554.436 891.528 C 546.906 828.329 592.051 770.999 655.253 763.499 z"/>
<path transform="translate(0,0)" fill="rgb(255,255,255)" d="M 612.712 850.308 C 629.291 851.34 620.205 858.06 636.989 850.461 C 648.285 845.347 668.471 865.839 680.588 872.479 L 682.195 873.348 C 671.815 891.339 665.074 899.838 645.234 907.342 C 608.989 913.839 590.646 904.614 572.68 873.342 C 589.188 864.263 595.692 853.012 612.712 850.308 z"/>
<path transform="translate(0,0)" fill="rgb(133,214,152)" d="M 583.205 877.732 C 599.823 877.82 612.397 880.485 628.637 882.421 C 632.52 882.883 645.152 879.502 650.005 878.894 C 657.551 877.947 663.623 877.849 671.263 877.797 C 668.502 882.209 666.026 885.206 662.808 889.248 C 649.75 901.875 632.56 904.512 615.322 901.409 C 600.06 898.661 591.376 889.872 583.205 877.732 z"/>
<path transform="translate(0,0)" fill="rgb(133,214,152)" d="M 610.517 856.942 C 620.091 856.359 621.732 859.798 627.383 866.328 C 641.829 849.301 650.68 858.437 664.773 870.846 C 658.965 870.952 653.671 871.643 647.916 872.286 C 639.658 873.407 635.77 874.358 627.7 876.645 C 613.269 872.507 605.094 871.965 590.285 870.782 C 597.943 863.933 600.943 860.918 610.517 856.942 z"/>
<path transform="translate(0,0)" fill="rgb(255,255,255)" d="M 737.814 829.728 C 742.097 831.419 747.269 836.849 749.698 840.658 C 767.555 868.654 762.2 905.557 736.742 926.279 C 734.151 925.472 735.119 925.934 733.038 923.915 C 732.538 917.57 742.822 910.619 746.011 904.817 C 748.144 900.937 750.047 895.703 751.138 891.424 C 755.111 876.206 752.551 860.02 744.076 846.77 C 739.835 840.121 734.364 836.838 737.814 829.728 z"/>
<path transform="translate(0,0)" fill="rgb(255,255,255)" d="M 719.607 841.564 C 735.264 844.438 743.237 869.653 740.366 883.449 C 737.312 898.119 732.36 905.598 720.724 914.246 C 718.966 913.958 718.612 913.637 716.939 912.923 C 714.574 906.02 732.328 899.625 733.923 881.475 C 735.885 859.134 718.988 852.622 719.607 841.564 z"/>
<path transform="translate(0,0)" fill="rgb(255,255,255)" d="M 705.008 851.595 C 718.467 851.973 723.273 868.745 721.797 879.904 C 720.273 891.436 716.529 896.061 708.037 903.068 L 704.683 902.257 C 700.308 895.958 714.09 890.009 715.424 880.233 C 717.359 866.05 704.998 861.484 705.008 851.595 z"/>
<path transform="translate(0,0)" fill="rgb(255,255,255)" d="M 691.572 862.783 C 706.985 866.898 704.225 883.69 693.771 892.948 C 691.009 892.479 692.031 892.862 689.741 890.998 C 689.513 886.198 695.496 881.481 695.303 878.053 C 694.849 869.969 690.29 872.678 691.572 862.783 z"/>
<path transform="translate(0,0)" fill="rgb(64,63,64)" d="M 1087.25 821.627 L 1102.9 821.612 L 1102.89 869.945 C 1110.05 860.622 1118.33 854.477 1130.21 852.48 C 1141.56 850.591 1153.2 853.371 1162.48 860.187 C 1185.97 877.499 1185.51 911.592 1168.87 933.472 C 1148.46 954.281 1121.33 951.58 1102.84 929.933 L 1102.87 946.022 L 1087.27 946.039 L 1087.25 821.627 z"/>
<path transform="translate(0,0)" fill="rgb(255,255,255)" d="M 1127.41 866.218 C 1171.58 861.671 1178.69 921.07 1140.68 932.868 C 1099.82 939.504 1086.45 880.321 1127.41 866.218 z"/>
<path transform="translate(0,0)" fill="rgb(64,63,64)" d="M 1307.49 1026.27 C 1324.27 1025.42 1334.12 1030.48 1344.96 1042.96 L 1344.9 1027.83 L 1360.87 1027.85 L 1360.79 1119.94 L 1344.96 1119.93 C 1344.94 1115.66 1345.86 1110.16 1344.54 1106.39 L 1343.16 1106.31 L 1339.94 1109.81 C 1334.03 1115.15 1328.45 1118.53 1320.63 1120.44 C 1309.95 1123.03 1298.68 1121.29 1289.28 1115.6 C 1255.26 1094.88 1259.02 1033.57 1307.49 1026.27 z"/>
<path transform="translate(0,0)" fill="rgb(255,255,255)" d="M 1307.42 1040.14 C 1351.13 1035.4 1359.26 1094.64 1320.84 1106.8 C 1281.15 1114.97 1266.36 1053.43 1307.42 1040.14 z"/>
<path transform="translate(0,0)" fill="rgb(64,63,64)" d="M 994.99 852.287 C 1013.44 851.411 1022.22 855.386 1034.23 869.022 L 1034.18 853.838 L 1049.98 853.869 L 1049.97 946.019 L 1034.19 946.006 C 1034.34 942.143 1035.02 935.799 1033.72 932.46 L 1032.3 932.372 L 1028.75 936.182 C 1022.6 941.593 1017.06 945.023 1008.88 946.803 C 998.178 949.132 986.99 947.102 977.79 941.162 C 955.254 926.507 950.197 893.235 964.188 871.158 C 971.473 859.662 982.254 854.835 994.99 852.287 z"/>
<path transform="translate(0,0)" fill="rgb(255,255,255)" d="M 997.62 866.104 C 1040.16 862.246 1048.83 920.624 1009.44 933.087 C 967.902 938.486 956.722 878.211 997.62 866.104 z"/>
<path transform="translate(0,0)" fill="rgb(64,63,64)" d="M 977.621 1026.5 C 1003.66 1023.53 1027.18 1042.21 1030.18 1068.25 C 1033.18 1094.29 1014.52 1117.83 988.49 1120.86 C 962.412 1123.9 938.817 1105.2 935.813 1079.12 C 932.809 1053.04 951.536 1029.47 977.621 1026.5 z"/>
<path transform="translate(0,0)" fill="rgb(255,255,255)" d="M 975.134 1040.3 C 1019.55 1034.81 1028.21 1092.97 990 1106.67 C 948.961 1114.88 936.405 1054.64 975.134 1040.3 z"/>
<path transform="translate(0,0)" fill="rgb(64,63,64)" d="M 1607.31 852.31 C 1643.48 849.947 1657.83 872.054 1656.89 905.48 L 1582.89 905.517 C 1584.47 914.938 1586.18 920.786 1593.99 927.34 C 1600.49 932.77 1608.97 935.239 1617.36 934.151 C 1625.59 933.027 1631.02 928.898 1635.86 922.536 C 1636.96 920.625 1637.47 919.908 1638.74 918.123 C 1643.99 916.096 1649.83 916.929 1655.67 917.093 L 1655.37 917.835 L 1654.84 919.064 C 1649.16 932.468 1640.42 942.705 1625.49 946.083 C 1614.35 948.453 1597.57 947.88 1588.11 940.6 C 1553.57 914.03 1562.06 859.896 1607.31 852.31 z"/>
<path transform="translate(0,0)" fill="rgb(255,255,255)" d="M 1611.37 865.369 C 1631.48 866.416 1637.73 874.251 1641.77 892.834 C 1633.81 893.299 1622.7 892.977 1614.5 892.994 C 1607.39 893.096 1591.57 893.75 1585.25 892.635 C 1580.82 887.684 1583.23 883.984 1587.23 879.221 C 1594.59 870.475 1599.94 866.658 1611.37 865.369 z"/>
<path transform="translate(0,0)" fill="rgb(64,63,64)" d="M 1419.49 852.271 C 1421.33 852.13 1423.17 852.073 1425.01 852.1 C 1458.21 852.914 1469.15 875.639 1468.05 905.463 L 1394.27 905.527 C 1396.41 915.645 1398.46 922.698 1407.73 929.117 C 1414.25 933.556 1422.24 935.258 1430 933.857 C 1439.28 932.162 1444.3 927.198 1449.19 919.732 L 1450.52 917.62 C 1455.41 916.413 1462.1 916.968 1467.31 917.095 C 1460.47 931.79 1453.32 942.799 1435.88 946.313 C 1424.13 948.608 1406.9 947.359 1397.38 939.118 C 1365.06 911.137 1374.78 858.873 1419.49 852.271 z"/>
<path transform="translate(0,0)" fill="rgb(255,255,255)" d="M 1423.08 865.369 C 1442.47 866.492 1450.2 874.39 1452.9 892.97 L 1425.5 892.995 L 1394.5 893.007 C 1398.38 875.223 1404.7 867.636 1423.08 865.369 z"/>
<path transform="translate(0,0)" fill="rgb(64,63,64)" d="M 871.719 827.401 C 898.372 827.512 916.568 838.382 927.27 863.078 L 908.958 863.098 C 903.127 853.821 897.95 847.43 886.881 843.58 C 876.066 839.902 864.233 840.666 853.981 845.706 C 830.53 857.219 823.838 889.866 836.103 911.545 C 841.78 921.667 851.465 928.923 862.774 931.529 C 891.39 938.271 908.622 921.512 914.419 895.034 L 887.5 895.026 L 867.452 895.003 L 867.448 882.783 L 930.405 882.793 C 930.523 899.263 929.112 911.698 918.451 925.351 C 909.127 937.126 895.502 944.707 880.581 946.421 C 864.415 948.449 848.121 943.796 835.465 933.536 C 823.284 923.558 815.706 909.039 814.484 893.341 C 811.344 856.542 834.921 830.547 871.719 827.401 z"/>
<path transform="translate(0,0)" fill="rgb(41,162,96)" d="M 1593.01 1072.07 C 1593.88 1072.01 1598.65 1071.73 1599.03 1071.9 C 1641.56 1090.71 1661.39 1153.49 1654.34 1194.76 C 1647.04 1237.49 1629.64 1260.64 1598.55 1283.89 C 1594.61 1286.18 1586.86 1285.17 1583.46 1282.29 C 1578.79 1270.14 1610.96 1247.26 1618.46 1235.36 C 1643.42 1195.78 1640.5 1144.09 1612.64 1106.75 C 1602.71 1093.44 1587.76 1091.02 1593.01 1072.07 z"/>
<path transform="translate(0,0)" fill="rgb(133,214,152)" d="M 1435.92 1143.48 C 1455.24 1140.64 1473.21 1153.96 1476.13 1173.27 C 1479.05 1192.57 1465.81 1210.6 1446.51 1213.6 C 1427.1 1216.62 1408.94 1203.28 1406.01 1183.86 C 1403.07 1164.44 1416.49 1146.33 1435.92 1143.48 z"/>
<path transform="translate(0,0)" fill="rgb(64,63,64)" d="M 1304.82 852.198 C 1359.6 848.41 1348.19 908.667 1348.02 946.039 L 1332.91 946.034 C 1332.93 928.661 1333.73 910.693 1332.97 893.42 C 1331.96 870.581 1319.13 864.695 1299.21 866.255 C 1272.99 877.099 1280.86 921.315 1280.99 946.016 L 1265.21 946.042 L 1265.2 853.859 L 1280.91 853.847 L 1281.06 865.596 C 1289.29 856.87 1293.49 854.672 1304.82 852.198 z"/>
<path transform="translate(0,0)" fill="rgb(41,162,96)" d="M 1555.07 1099.82 C 1591.16 1103.55 1605.13 1169.27 1597.14 1199.35 C 1591.14 1221.37 1576.7 1240.15 1556.97 1251.62 C 1550.56 1252.89 1542.73 1249.73 1542.73 1242.95 C 1543.58 1234.15 1557.06 1227.08 1562.95 1220.25 C 1587.21 1192.11 1584.8 1144.97 1555.81 1121.05 C 1546.72 1113.55 1546.56 1108.1 1555.07 1099.82 z"/>
<path transform="translate(0,0)" fill="rgb(64,63,64)" d="M 1113.68 1026.31 C 1169.06 1024.43 1157.16 1080.53 1156.94 1119.93 L 1141.86 1119.92 C 1141.87 1103.28 1142.21 1086.5 1142.02 1069.89 C 1141.92 1061.38 1139.58 1050.96 1132.84 1045.29 C 1124.85 1038.56 1117.42 1039.38 1107.94 1040.21 C 1082.11 1050.66 1089.87 1095.91 1090 1119.9 L 1074.21 1119.93 L 1074.19 1027.84 L 1089.91 1027.85 L 1090.04 1039.54 C 1098.36 1030.78 1102.29 1028.93 1113.68 1026.31 z"/>
<path transform="translate(0,0)" fill="rgb(64,63,64)" d="M 832.568 1002.61 L 898.99 1002.64 L 898.979 1015.34 L 848.098 1015.26 L 848.114 1054.38 L 889.603 1054.39 L 889.508 1067.1 L 848.098 1067.08 L 848.1 1119.92 L 832.607 1119.9 L 832.568 1002.61 z"/>
<path transform="translate(0,0)" fill="rgb(64,63,64)" d="M 1503.59 830.517 L 1519.08 830.606 L 1519.06 853.85 L 1543.02 853.857 L 1543.01 866.667 L 1519.09 866.667 C 1519.01 879.836 1517.1 919.93 1521.92 929.455 C 1526.78 933.654 1536.32 932.492 1543 932.464 L 1542.99 946.01 C 1529.6 946.22 1505.36 946.769 1503.91 927.397 C 1502.45 907.901 1503.66 886.529 1503.58 866.709 C 1496.72 866.922 1494.54 868.14 1490.55 861.919 C 1490.18 853.131 1497.24 853.659 1503.57 853.795 L 1503.59 830.517 z"/>
<path transform="translate(0,0)" fill="rgb(41,162,96)" d="M 833.217 1177.28 C 855.942 1176.35 884.39 1177.08 907.51 1177.08 L 1048.54 1177.02 L 1164.02 1176.96 C 1172.49 1176.96 1220.41 1176.21 1223.82 1178.01 L 1224.83 1182.12 C 1189.87 1183.48 837.063 1182.7 834.794 1181.5 C 833.542 1180.84 833.524 1178.57 833.217 1177.28 z"/>
<path transform="translate(0,0)" fill="rgb(133,214,152)" d="M 1340.34 1154.46 C 1353.62 1151.99 1366.38 1160.74 1368.87 1174.01 C 1371.37 1187.28 1362.65 1200.06 1349.39 1202.59 C 1336.08 1205.12 1323.24 1196.37 1320.74 1183.05 C 1318.24 1169.74 1327.02 1156.93 1340.34 1154.46 z"/>
<path transform="translate(0,0)" fill="rgb(41,162,96)" d="M 1509.59 1134.65 C 1533.32 1134.24 1543.52 1167.52 1539.16 1187.07 C 1535.64 1202.84 1529.9 1210.88 1516.88 1219.88 C 1514.72 1220.71 1510.52 1221.98 1508.45 1220.92 C 1492.37 1212.26 1514.77 1197.44 1518.89 1187.14 C 1525.82 1169.8 1513.39 1162.02 1507.4 1147.39 C 1505.69 1143.23 1507.68 1138.31 1509.59 1134.65 z"/>
<path transform="translate(0,0)" fill="rgb(64,63,64)" d="M 1212.33 853.862 L 1228.03 853.832 L 1227.99 946.034 L 1212.32 946.01 L 1212.33 853.862 z"/>
<path transform="translate(0,0)" fill="rgb(64,63,64)" d="M 1206.69 1027.81 L 1222.16 1027.84 L 1222.12 1119.91 L 1206.67 1119.92 L 1206.69 1027.81 z"/>
<path transform="translate(0,0)" fill="rgb(133,214,152)" d="M 1269.29 1163.63 C 1277.52 1161.13 1286.21 1165.79 1288.7 1174.03 C 1291.19 1182.26 1286.53 1190.95 1278.29 1193.44 C 1270.06 1195.92 1261.38 1191.26 1258.89 1183.03 C 1256.4 1174.8 1261.06 1166.12 1269.29 1163.63 z"/>
<path transform="translate(0,0)" fill="rgb(64,63,64)" d="M 1211.32 992.514 C 1216.81 990.706 1222.72 993.652 1224.58 999.117 C 1226.45 1004.58 1223.56 1010.53 1218.11 1012.44 C 1212.59 1014.38 1206.54 1011.44 1204.66 1005.9 C 1202.77 1000.36 1205.76 994.348 1211.32 992.514 z"/>
<path transform="translate(0,0)" fill="rgb(64,63,64)" d="M 1216.98 818.553 C 1222.4 816.747 1228.26 819.592 1230.2 824.962 C 1232.14 830.333 1229.44 836.267 1224.11 838.334 C 1220.55 839.716 1216.53 839.06 1213.59 836.621 C 1210.65 834.181 1209.27 830.342 1209.97 826.589 C 1210.68 822.836 1213.36 819.76 1216.98 818.553 z"/>
<path transform="translate(0,0)" fill="rgb(64,63,64)" d="M 991.811 1004.48 C 994.511 1003.07 997.771 1003.28 1000.27 1005.01 C 1002.78 1006.75 1004.11 1009.73 1003.74 1012.75 C 1003.37 1015.78 1001.35 1018.34 998.494 1019.42 C 994.439 1020.94 989.897 1019.05 988.127 1015.09 C 986.357 1011.14 987.971 1006.49 991.811 1004.48 z"/>
<path transform="translate(0,0)" fill="rgb(64,63,64)" d="M 967.291 1004.52 C 969.913 1003.15 973.072 1003.31 975.545 1004.93 C 978.019 1006.56 979.418 1009.39 979.202 1012.34 C 978.986 1015.29 977.189 1017.9 974.505 1019.14 C 970.489 1021.01 965.718 1019.33 963.758 1015.36 C 961.798 1011.39 963.367 1006.58 967.291 1004.52 z"/>
</svg>