<?xml version="1.0" encoding="UTF-8"?>
<svg id="Capa_1" xmlns="http://www.w3.org/2000/svg" version="1.1" viewBox="0 0 1220 384.8">
  <!-- Generator: Adobe Illustrator 29.8.1, SVG Export Plug-In . SVG Version: 2.1.1 Build 2)  -->
  <defs>
    <style>
      .st0 {
        fill: #fff;
      }

      .st1 {
        fill: #94ce0d;
      }
    </style>
  </defs>
  <g>
    <path class="st1" d="M899.7,265.2c6.2,0,11.6,2.3,15.3,6.3,2.4,2.7.5,7-3.1,7h0c-1.3,0-2.6-.6-3.4-1.7-2-2.8-5.1-4.2-8.8-4.2-7.2,0-12.3,5.2-12.3,13.6s5.1,13.6,12.3,13.6,6.8-1.4,8.8-4.2c.8-1.1,2-1.7,3.4-1.7h0c3.6,0,5.6,4.3,3.1,7-3.7,4.1-9.1,6.3-15.3,6.3-11.8,0-20.8-8.6-20.8-20.9s9-21,20.8-21Z"/>
    <path class="st1" d="M967.8,269v31.3h10.3c1.8,0,3.3,1.5,3.3,3.3h0c0,1.8-1.5,3.3-3.3,3.3h-18.5v-37.8c0-1.8,1.5-3.3,3.3-3.3h1.7c1.8,0,3.3,1.5,3.3,3.3Z"/>
    <path class="st1" d="M1039.1,307.2c-11.6,0-21.1-8.7-21.1-21.1s9.5-21,21.1-21,21,8.7,21,21-9.4,21.1-21,21.1ZM1039.1,299.8c7.4,0,12.5-5.4,12.5-13.7s-5.1-13.6-12.5-13.6-12.6,5.2-12.6,13.6,5.1,13.7,12.6,13.7Z"/>
    <path class="st1" d="M1103.7,265.7h0c2.3,0,4.1,1.8,4.1,4.1v21.3c0,5.6,3.1,8.6,8.3,8.6s8.4-2.9,8.4-8.6v-21.3c0-2.3,1.8-4.1,4.1-4.1h0c2.3,0,4.1,1.8,4.1,4.1v21.2c0,10.8-7.8,16.1-16.8,16.1s-16.4-5.3-16.4-16.1v-21.2c0-2.3,1.8-4.1,4.1-4.1Z"/>
    <path class="st1" d="M1210.2,286.3c0,12.4-8.5,20.5-21.6,20.5h-14.4v-41.1h14.4c13.1,0,21.6,8.1,21.6,20.6ZM1188.2,299.8c8.6,0,13.5-4.9,13.5-13.5s-4.9-13.6-13.5-13.6h-5.8v27.1h5.8Z"/>
  </g>
  <polygon class="st0" points="135.9 229.2 45 282 0 256 45 230 91 203.4 135.9 229.2"/>
  <polygon class="st1" points="225.8 229.3 180.9 255.2 91 203.4 135.9 177.4 225.8 229.3"/>
  <polygon class="st1" points="225.8 281.1 136 333 91.1 307 180.9 255.2 225.8 281.1"/>
  <polygon class="st1" points="91.1 358.9 136 384.8 180.9 358.9 136 333 91.1 358.9"/>
  <path class="st0" d="M272.1,109.3v93.9s-45,26-45,26v-93.9c0-6.4-3.4-12.4-9-15.6l-79.2-45.7c-1.7-1-3.9-1-5.6,0l-79.2,45.7c-5.6,3.2-9,9.2-9,15.6v146.7S0,256,0,256V109.3c0-6.4,3.4-12.4,9-15.6L133.2,22c1.7-1,3.9-1,5.6,0l124.2,71.7c5.6,3.2,9,9.2,9,15.6Z"/>
  <path class="st0" d="M399.2,307.2c-10.2,0-18.5-8.3-18.5-18.5s8.3-18.5,18.5-18.5l76.5-.4c5,0,9.1-4.1,9.1-9.2v-22.3h-77.9c-20.6,0-37.4-16.8-37.4-37.4v-89.7c0-20.6,16.8-37.4,37.4-37.4h89c14.3,0,25.9,11.6,25.9,25.9v169.6c0,20.6-16.8,37.4-37.4,37.4l-85.3.4ZM416.5,110.8c-5.5,0-9.9,4.5-9.9,9.9v70.6c0,5.5,4.5,9.9,9.9,9.9h68.3v-90.4h-68.3Z"/>
  <path class="st0" d="M912.5,239c-20.6,0-37.4-16.8-37.4-37.4v-30.5c0-20.6,16.8-37.4,37.4-37.4h77.9v-14.9c0-4.3-3.5-7.9-7.9-7.9h-75.7c-10.1,0-18.6-8-19-17.8-.2-5.1,1.7-9.9,5.2-13.5,3.5-3.6,8.3-5.7,13.3-5.7h83.7c20.6,0,37.4,16.8,37.4,37.4v101.8c0,14.3-11.6,25.9-25.9,25.9h-89ZM922,170.7c-5.5,0-9.9,4.5-9.9,9.9v11.4c0,5.5,4.5,9.9,9.9,9.9h68.3v-31.3h-68.3Z"/>
  <path class="st0" d="M713.5,307.2c-10.2,0-18.5-8.3-18.5-18.5s8.3-18.5,18.5-18.5l76.5-.4c5,0,9.1-4.1,9.1-9.2v-22.3h-77.9c-20.6,0-37.4-16.8-37.4-37.4v-89.7c0-20.6,16.8-37.4,37.4-37.4h89c14.3,0,25.9,11.6,25.9,25.9v169.6c0,20.6-16.8,37.4-37.4,37.4l-85.3.4ZM730.8,110.8c-5.5,0-9.9,4.5-9.9,9.9v70.6c0,5.5,4.5,9.9,9.9,9.9h68.3v-90.4h-68.3Z"/>
  <path class="st0" d="M1090.6,239.2c-10.2,0-18.5-8.3-18.5-18.5s8.3-18.5,18.5-18.5h83.9c4.4,0,8.5-3.9,9.1-8.5.5-3.9-1.6-8.7-6.4-10l-80.6-20.1c-23.1-8.2-35.9-31.9-29.6-55.1,5.5-20.5,24.2-34.8,45.4-34.8h78.9c10.2,0,18.5,8.3,18.5,18.5s-8.3,18.5-18.5,18.5h-78.9c-4.5,0-8.5,3-9.7,7.4-1.4,5,1.4,10.3,6.3,12h0s80.8,20.6,80.8,20.6c17.1,4.1,30.1,22.6,30.1,42.9s-20.4,45.4-45.4,45.4h-83.9Z"/>
  <path class="st0" d="M612.6,248.9c-.2,0-.4,0-.7,0-9.8-.3-17.8-8.9-17.8-19v-118.7h-24c-10.1,0-18.6-8-19-17.8-.2-5.1,1.7-9.9,5.2-13.5,3.5-3.6,8.3-5.7,13.3-5.7h55.5c3.3,0,6,2.7,6,6v150.2c0,10.2-8.3,18.5-18.5,18.5Z"/>
  <path class="st0" d="M612.6,44.9c-12.4,0-22.4-10.1-22.4-22.4s10.1-22.4,22.4-22.4,22.4,10.1,22.4,22.4-10.1,22.4-22.4,22.4Z"/>
</svg>